Coordinates
version=1
nRows=9
nColumns=24
inDegrees=yes

Units are S.I. units (second, meters, Newtons, ...)
Angles are in degrees.

endheader
time	pelvis_tilt	pelvis_list	pelvis_rotation	pelvis_tx	pelvis_ty	pelvis_tz	hip_flexion_r	hip_adduction_r	hip_rotation_r	knee_angle_r	ankle_angle_r	subtalar_angle_r	mtp_angle_r	hip_flexion_l	hip_adduction_l	hip_rotation_l	knee_angle_l	ankle_angle_l	subtalar_angle_l	mtp_angle_l	lumbar_extension	lumbar_bending	lumbar_rotation
      1.32950000	     -1.93158339	      7.26839116	     -0.95037211	      0.20401769	      0.99262029	      0.30980037	     18.82396480	     -7.50951810	      0.91760718	    -69.16315899	     -4.67839533	    -10.83336290	      3.28951351	     10.62959407	     12.22272934	     -0.05525886	    -10.77194366	      1.20758740	    -12.26681154	     -0.52591399	      1.48639120	     -5.12813477	      3.10406126
      1.33366667	     -1.84258511	      7.19233502	     -0.96400959	      0.20914398	      0.99331546	      0.30971648	     19.31886910	     -7.36944904	      1.07504816	    -68.99974652	     -3.83873943	    -10.97130139	      3.28466677	     10.04957354	     12.16864417	      0.08088189	    -10.50070540	      1.34918149	    -12.27642709	     -0.53439107	      1.37886167	     -5.03771989	      3.05607464
      1.33783333	     -1.73879213	      7.11181610	     -0.97418008	      0.21427553	      0.99402392	      0.30962943	     19.77722244	     -7.22711960	      1.22120933	    -68.77009157	     -3.01269835	    -11.09926099	      3.27483451	      9.44872671	     12.11082884	      0.22741325	    -10.22068956	      1.48407175	    -12.29551204	     -0.54721852	      1.25307690	     -4.94338074	      3.00578617
      1.34200000	     -1.63046197	      7.04841978	     -0.98401489	      0.21941076	      0.99469828	      0.30954566	     20.21746872	     -7.10846401	      1.36284219	    -68.48620768	     -2.22106486	    -11.20317432	      3.24062376	      8.82964497	     12.07329536	      0.40559309	     -9.91187639	      1.59686289	    -12.36274615	     -0.57901974	      1.12612710	     -4.88215066	      2.94417496
      1.34616667	     -1.55561708	      6.94770029	     -0.98545942	      0.22449657	      0.99530049	      0.30946931	     20.67819098	     -6.94135675	      1.49570656	    -68.14447441	     -1.43178794	    -11.30674821	      3.22343353	      8.27656956	     11.99074458	      0.55047762	     -9.66284733	      1.74525730	    -12.38311767	     -0.59917218	      1.02660449	     -4.75003925	      2.90376300
      1.35033333	     -1.48085868	      6.84064899	     -0.98019676	      0.22960270	      0.99588164	      0.30938259	     21.11581342	     -6.77472247	      1.61125511	    -67.73806594	     -0.66395092	    -11.40207074	      3.21003340	      7.72065637	     11.90056053	      0.68746884	     -9.41022558	      1.90206166	    -12.40056046	     -0.61695891	      0.94583651	     -4.62431449	      2.86268584
      1.35450000	     -1.37909905	      6.75880847	     -0.97968990	      0.23466199	      0.99644192	      0.30931629	     21.51949549	     -6.63277046	      1.73923408	    -67.29297813	      0.09481730	    -11.48293467	      3.18358288	      7.13384679	     11.83829555	      0.86150607	     -9.14594183	      2.03912199	    -12.43351958	     -0.64624811	      0.80059016	     -4.54380993	      2.80945310
      1.35866667	     -1.30371636	      6.65434231	     -0.96997877	      0.23974497	      0.99695264	      0.30922498	     21.92814718	     -6.47696688	      1.83548864	    -66.78446769	      0.81350314	    -11.55330982	      3.16612192	      6.57844571	     11.75026296	      1.00809463	     -8.89025966	      2.19476676	    -12.46179850	     -0.66802604	      0.71088597	     -4.40112277	      2.76588569
      1.36283333	     -1.17492561	      6.58795112	     -0.96347453	      0.24482206	      0.99747872	      0.30913335	     22.26741888	     -6.37039638	      1.93567205	    -66.23344031	      1.51918102	    -11.59189473	      3.09556172	      5.94368036	     11.70826417	      1.21710833	     -8.58599826	      2.29845618	    -12.57176964	     -0.73724612	      0.54381997	     -4.34078330	      2.68356647
